<svg width="77" height="16" viewBox="0 0 77 16" fill="none" xmlns="http://www.w3.org/2000/svg">
<path d="M5.41988 -0.00250077C8.71988 -0.00250077 10.5199 1.7375 10.5199 4.1975H8.51988C8.51988 2.7775 7.41988 1.6975 5.39988 1.6975C3.49988 1.6975 2.35988 2.6975 2.35988 3.9175C2.35988 5.0975 2.99988 5.7775 4.79988 6.2575L6.91988 6.8375C9.53988 7.5375 10.8399 8.7375 10.8399 10.9975C10.8399 13.3975 9.05988 15.1375 5.49988 15.1375C1.97988 15.1375 -0.000117183 13.2575 -0.000117183 10.5375H1.99988C1.99988 12.2375 3.33988 13.5575 5.51988 13.5575C7.69988 13.5575 8.83988 12.4375 8.83988 11.0375C8.83988 9.7375 8.19988 9.0575 6.33988 8.5775L4.29988 8.0775C1.39988 7.3575 0.339883 5.9975 0.339883 3.9375C0.339883 1.6775 2.19988 -0.00250077 5.41988 -0.00250077ZM16.6132 0.197499H21.1732C24.8932 0.197499 27.1732 2.0975 27.1732 5.4575C27.1732 8.7775 24.8932 10.6575 21.1732 10.6575H18.5332V14.9375H16.6132V0.197499ZM18.5332 9.1175H21.1932C23.4532 9.1175 25.1932 7.9375 25.1932 5.4575C25.1932 2.9775 23.4532 1.7775 21.1932 1.7775H18.5332V9.1175ZM35.6289 0.197499H37.7489L43.4689 14.9375H41.4889L40.2289 11.6575H33.0689L31.8289 14.9375H29.8889L35.6289 0.197499ZM33.7489 9.8575H39.5489L36.6489 2.2375L33.7489 9.8575ZM47.9561 0.197499H52.7361C56.2761 0.197499 58.5761 2.0575 58.5761 5.3575C58.5761 7.5175 57.5961 9.0575 55.9161 9.8775L58.8961 14.9375H56.6361L53.9761 10.4575C53.5761 10.5175 53.1761 10.5375 52.7361 10.5375H49.8761V14.9375H47.9561V0.197499ZM49.8761 8.7575H52.5361C54.8561 8.7575 56.5961 7.6775 56.5961 5.3575C56.5961 3.0575 54.8561 1.9775 52.5361 1.9775H49.8761V8.7575ZM69.7504 -0.00250077C73.6504 -0.00250077 75.9104 2.6175 76.0504 5.2175H74.0104C73.8504 3.5375 72.3504 1.8175 69.7504 1.8175C67.1704 1.8175 65.0704 3.7975 65.0704 7.5775C65.0704 11.3375 67.1704 13.3375 69.7504 13.3375C72.3504 13.3375 73.8504 11.6175 74.0104 9.9375H76.0504C75.9104 12.5375 73.6504 15.1375 69.7704 15.1375C65.8904 15.1375 63.0904 12.4175 63.0904 7.5775C63.0904 2.7175 65.8904 -0.00250077 69.7504 -0.00250077Z" fill="black"/>
</svg>
