<svg width="18" height="18" viewBox="0 0 18 18" fill="none" xmlns="http://www.w3.org/2000/svg">
<g clip-path="url(#clip0_937_15627)">
<path d="M0.75 15V4.5C0.75 3.90326 0.987223 3.33114 1.40918 2.90918C1.83114 2.48722 2.40326 2.25 3 2.25H8.25C8.66421 2.25 9 2.58579 9 3C9 3.41421 8.66421 3.75 8.25 3.75H3C2.80109 3.75 2.61038 3.82907 2.46973 3.96973C2.32907 4.11038 2.25 4.30109 2.25 4.5V15C2.25 15.1989 2.32907 15.3896 2.46973 15.5303C2.61038 15.6709 2.80109 15.75 3 15.75H13.5C13.6989 15.75 13.8896 15.6709 14.0303 15.5303C14.1709 15.3896 14.25 15.1989 14.25 15V9.75C14.25 9.33579 14.5858 9 15 9C15.4142 9 15.75 9.33579 15.75 9.75V15C15.75 15.5967 15.5128 16.1689 15.0908 16.5908C14.6689 17.0128 14.0967 17.25 13.5 17.25H3C2.40326 17.25 1.83114 17.0128 1.40918 16.5908C0.987223 16.1689 0.75 15.5967 0.75 15Z" fill="#5D5D5D"/>
<path d="M15.8405 2.99707C15.8405 2.77409 15.7521 2.56002 15.5945 2.40234C15.4367 2.24468 15.2227 2.15625 14.9997 2.15625C14.7767 2.15625 14.5627 2.24468 14.405 2.40234L7.42648 9.38013L7.02951 10.9666L8.61594 10.5703L15.5945 3.5918C15.7521 3.43409 15.8405 3.22007 15.8405 2.99707ZM17.3405 2.99707C17.3405 3.6179 17.094 4.21333 16.655 4.65234L9.53 11.7773C9.43388 11.8735 9.31324 11.9421 9.18137 11.9751L6.18137 12.7251C5.92587 12.7889 5.65566 12.7136 5.46945 12.5273C5.28323 12.3411 5.20855 12.071 5.27243 11.8154L6.02243 8.81543L6.05319 8.71875C6.09078 8.62473 6.14736 8.53889 6.21945 8.4668L13.3445 1.3418C13.7835 0.902829 14.3789 0.65625 14.9997 0.65625C15.6206 0.65625 16.216 0.902829 16.655 1.3418C17.094 1.78078 17.3405 2.37626 17.3405 2.99707Z" fill="#5D5D5D"/>
</g>
<defs>
<clipPath id="clip0_937_15627">
<rect width="18" height="18" fill="white"/>
</clipPath>
</defs>
</svg>
