<svg width="18" height="18" viewBox="0 0 18 18" fill="none" xmlns="http://www.w3.org/2000/svg">
<path d="M16.5 1.5C16.792 1.5 17.0576 1.66945 17.1805 1.93433C17.3033 2.19914 17.2612 2.51119 17.0728 2.73413L11.25 9.6189V15.75C11.25 16.0099 11.1152 16.2513 10.8941 16.3879C10.673 16.5245 10.397 16.5371 10.1646 16.4209L7.1646 14.9209C6.91051 14.7939 6.75005 14.5341 6.75005 14.25V9.6189L0.927294 2.73413C0.738846 2.51119 0.696769 2.19914 0.819628 1.93433C0.942522 1.66945 1.20805 1.5 1.50005 1.5H16.5ZM8.0728 8.86084C8.18723 8.99621 8.25004 9.16771 8.25005 9.34497V13.7864L9.75005 14.5364V9.34497C9.75006 9.16771 9.81286 8.99621 9.92729 8.86084L14.8836 3H3.1165L8.0728 8.86084Z" fill="#5D5D5D"/>
</svg>
