<svg width="16" height="16" viewBox="0 0 16 16" fill="none" xmlns="http://www.w3.org/2000/svg">
<path d="M6 2H2.66667C2.29848 2 2 2.29848 2 2.66667V6C2 6.36819 2.29848 6.66667 2.66667 6.66667H6C6.36819 6.66667 6.66667 6.36819 6.66667 6V2.66667C6.66667 2.29848 6.36819 2 6 2Z" stroke="#353639" stroke-linecap="round" stroke-linejoin="round"/>
<path d="M13.334 2H10.0007C9.63246 2 9.33398 2.29848 9.33398 2.66667V6C9.33398 6.36819 9.63246 6.66667 10.0007 6.66667H13.334C13.7022 6.66667 14.0007 6.36819 14.0007 6V2.66667C14.0007 2.29848 13.7022 2 13.334 2Z" stroke="#353639" stroke-linecap="round" stroke-linejoin="round"/>
<path d="M13.334 9.33594H10.0007C9.63246 9.33594 9.33398 9.63441 9.33398 10.0026V13.3359C9.33398 13.7041 9.63246 14.0026 10.0007 14.0026H13.334C13.7022 14.0026 14.0007 13.7041 14.0007 13.3359V10.0026C14.0007 9.63441 13.7022 9.33594 13.334 9.33594Z" stroke="#353639" stroke-linecap="round" stroke-linejoin="round"/>
<path d="M6 9.33594H2.66667C2.29848 9.33594 2 9.63441 2 10.0026V13.3359C2 13.7041 2.29848 14.0026 2.66667 14.0026H6C6.36819 14.0026 6.66667 13.7041 6.66667 13.3359V10.0026C6.66667 9.63441 6.36819 9.33594 6 9.33594Z" stroke="#353639" stroke-linecap="round" stroke-linejoin="round"/>
</svg>
