<svg width="22" height="22" viewBox="0 0 22 22" fill="none" xmlns="http://www.w3.org/2000/svg">
<path d="M9.5 2.625H2.5C1.96957 2.625 1.46086 2.83571 1.08579 3.21079C0.710714 3.58586 0.5 4.09457 0.5 4.625V18.625C0.5 19.1554 0.710714 19.6641 1.08579 20.0392C1.46086 20.4143 1.96957 20.625 2.5 20.625H16.5C17.0304 20.625 17.5391 20.4143 17.9142 20.0392C18.2893 19.6641 18.5 19.1554 18.5 18.625V11.625" stroke="#353639" stroke-linecap="round" stroke-linejoin="round"/>
<path d="M17 1.12132C17.3978 0.723496 17.9374 0.5 18.5 0.5C19.0626 0.5 19.6022 0.723496 20 1.12132C20.3978 1.51915 20.6213 2.05871 20.6213 2.62132C20.6213 3.18393 20.3978 3.7235 20 4.12132L10.5 13.6213L6.5 14.6213L7.5 10.6213L17 1.12132Z" stroke="#353639" stroke-linecap="round" stroke-linejoin="round"/>
</svg>
