<svg width="25" height="22" viewBox="0 0 25 22" fill="none" xmlns="http://www.w3.org/2000/svg">
<path d="M23.5673 16.7324L19.1691 9.21544L14.8568 1.64527C14.2615 0.599982 13.2287 0 12.0241 0C10.821 0 9.78979 0.599982 9.19293 1.64527L4.88226 9.21224L0.482397 16.734C-0.123824 17.7715 -0.128504 18.9652 0.473023 20.0089C1.073 21.0448 2.09953 21.6385 3.29482 21.6385H3.31357L12.0213 21.5885L20.735 21.6385H20.7538C21.9491 21.6385 22.9772 21.0448 23.5771 20.0089C24.1771 18.9667 24.174 17.7731 23.5678 16.7356L23.5673 16.7324ZM22.5248 19.5C22.067 20.2906 21.6459 20.5 20.735 20.5H16.5248H12.0248H7.63486H3.52479H3.26928C2.35838 20.5 1.98102 20.2891 1.52479 19.5C1.067 18.7047 1.32599 17.7906 1.78846 17L4.02479 13.5L6.07576 9.75135L10.2885 2C10.7431 1.20314 11.1037 1.15204 12.0223 1.15204C12.941 1.15204 13.3354 1.20314 13.7885 2L18.2885 9.74981L22.2885 17C22.7509 17.7922 22.9826 18.7047 22.5248 19.5ZM15.5583 15.92H15.5333V13.1841C15.5333 11.2483 13.9583 9.67486 12.024 9.67486C10.0897 9.67486 8.51631 11.2498 8.51631 13.1841V15.92H8.48975C7.86789 15.92 7.36166 16.4262 7.36166 17.048V18.1402C7.36166 18.7621 7.86789 19.2683 8.48975 19.2683H15.5583C16.1818 19.2683 16.688 18.7621 16.688 18.1402V17.048C16.688 16.4262 16.1817 15.92 15.5583 15.92ZM9.28965 13.1841C9.28965 11.6748 10.5162 10.4483 12.0239 10.4483C13.5332 10.4483 14.7598 11.6764 14.7598 13.1841V15.92L12.5 16V14.5V13.1841C12.5 12.9701 12.2364 12.7966 12.0223 12.7966C11.8083 12.7966 11.5 12.9701 11.5 13.1841V14.5V15.92H9.28649V13.1841H9.28965ZM15.9142 18.1404C15.9142 18.3325 15.6937 18 15.5 18H8.5C8.30782 18 8.13475 18.0808 8.13475 17.8886V17.0482C8.13475 16.8529 8.30469 17 8.5 17H12H15.5C15.6969 17 15.9142 16.8529 15.9142 17.0482V18.1404ZM11.6364 8.28427V6.59212C11.6364 6.37806 11.8098 6.20463 12.0239 6.20463C12.2379 6.20463 12.4114 6.37806 12.4114 6.59212V8.28427C12.4114 8.49832 12.2379 8.67175 12.0239 8.67175C11.8098 8.67175 11.6364 8.49832 11.6364 8.28427ZM16.9582 8.24989C17.1098 8.40145 17.1098 8.64519 16.9582 8.79676L15.7629 9.99204C15.6879 10.067 15.5879 10.1045 15.4895 10.1045C15.3911 10.1045 15.2911 10.067 15.2161 9.99204C15.0645 9.84048 15.0645 9.59674 15.2161 9.44518L16.4114 8.24989C16.5629 8.09833 16.8067 8.09833 16.9582 8.24989ZM8.28328 9.99204L7.08799 8.79676C6.93644 8.6452 6.93644 8.40146 7.08799 8.24989C7.23955 8.09833 7.48329 8.09833 7.63486 8.24989L8.83014 9.44518C8.9817 9.59674 8.9817 9.84048 8.83014 9.99204C8.75514 10.067 8.65515 10.1045 8.55671 10.1045C8.45828 10.1045 8.35828 10.067 8.28328 9.99204ZM19.1453 3.24225C19.1938 3.03444 19.4032 2.90632 19.611 2.95475C22.6421 3.67193 24.7363 6.59212 23.806 9.75135C23.7639 9.92947 23.6045 10.0498 23.4295 10.0498C23.3998 10.0498 23.3701 10.0466 23.3404 10.0388C23.1326 9.9904 23.0045 9.78103 23.0529 9.57321C23.6717 6.95765 22.0467 4.32817 19.4312 3.70779C19.2234 3.65779 19.0952 3.44999 19.1437 3.24216L19.1453 3.24225ZM18.6063 5.51874C18.6547 5.31093 18.8641 5.18281 19.0719 5.23124C19.9328 5.43436 20.7723 5.7469 21.2363 6.5C21.7004 7.25154 21.7343 8.35303 21.5312 9.21392C21.489 9.39204 21.3296 9.51235 21.1546 9.51235C21.125 9.51235 21.0953 9.50922 21.0656 9.50141C20.8578 9.45298 20.7297 9.24361 20.7781 9.03579C20.9343 8.37645 20.8234 7.69519 20.4687 7.11865C20.1125 6.5421 19.5531 6.139 18.8938 5.98432C18.686 5.93589 18.5563 5.72656 18.6063 5.51874ZM0.238045 9.74981C-0.711539 6.5 1.27976 3.5 4.43472 2.95321C4.64252 2.90478 4.85034 3.0329 4.90034 3.24071C4.94878 3.44851 4.82066 3.65633 4.61285 3.70633C1.99729 4.32507 0.372181 6.95623 0.989522 9.57175C1.03796 9.77956 0.909836 9.98738 0.702031 10.0374C0.672345 10.0452 0.642657 10.0483 0.61297 10.0483C0.437975 10.0483 0.278604 9.92801 0.236417 9.74989L0.238045 9.74981ZM4.97546 5.23119C5.18326 5.18275 5.38953 5.31083 5.43953 5.51864C5.48796 5.72644 5.35984 5.93426 5.15203 5.98426C4.49269 6.13895 3.93487 6.54205 3.57864 7.11859C3.22241 7.69513 3.11302 8.37479 3.26928 9.03573C3.31771 9.24353 3.18959 9.45136 2.98179 9.50135C2.9521 9.50917 2.92241 9.51229 2.89272 9.51229C2.71773 9.51229 2.44314 9.39036 2.40095 9.21224C2.19784 8.35135 2.32442 7.2531 2.78846 6.5C3.25253 5.74846 4.11456 5.4343 4.97546 5.23119Z" fill="#353639"/>
</svg>
