<svg width="20" height="26" viewBox="0 0 20 26" fill="none" xmlns="http://www.w3.org/2000/svg">
<path d="M11.5188 18.0297C14.1697 18.0297 16.3188 15.8807 16.3188 13.2297C16.3188 10.5787 14.1697 8.42969 11.5188 8.42969C8.86778 8.42969 6.71875 10.5787 6.71875 13.2297C6.71875 15.8807 8.86778 18.0297 11.5188 18.0297Z" stroke="#353639" stroke-width="1.25" stroke-linecap="round" stroke-linejoin="round"/>
<path d="M17.5214 19.2284L14.9414 16.6484" stroke="#353639" stroke-width="1.25" stroke-linecap="round" stroke-linejoin="round"/>
<path d="M11.1632 16.5469V15.7181H12.0669V16.5469H11.1632ZM11.1632 15.1969V11.1469H12.0669V15.1969H11.1632Z" fill="#353639"/>
<path d="M0.878906 6.25V4.11L9.84673 0.75L18.8789 4.25V8.25" stroke="#353639" stroke-width="1.4" stroke-linecap="round"/>
<path d="M15.9182 7.95375V6.99375L9.67817 4.59375L3.91619 7.47375C3.43672 16.1137 5.20325 19.7602 9.67817 21.3937L11.5982 20.4337" stroke="#353639" stroke-width="1.4" stroke-linecap="round"/>
<path d="M0.961112 10.3516C0.936169 19.2683 3.58483 21.4824 8.92545 24.7516C11.7628 24.0363 12.4928 23.0294 14.4009 20.9116" stroke="#353639" stroke-width="1.4" stroke-linecap="round"/>
<circle cx="0.96" cy="8.42875" r="0.96" fill="#353639"/>
</svg>
