<svg width="32" height="22" viewBox="0 0 32 22" fill="none" xmlns="http://www.w3.org/2000/svg">
<path d="M0.505859 21.2608V14.1748H3.03659V21.2608H4.55503V8.10104H7.08576V21.2608H8.6042V14.1748H11.1349V21.2608H12.6534V11.6441H15.1841V21.2608H16.7025V5.57031H19.2333V21.2608H20.7517V7.5949H23.2824V21.2608H24.8009V13.6687H27.3316V21.2608H28.85V10.1256H31.3808V21.2608H0.505859Z" stroke="white" stroke-linecap="round"/>
<path d="M1.51855 8.35156C2.21904 8.35163 2.78711 8.91962 2.78711 9.62012C2.78705 10.3206 2.219 10.8886 1.51855 10.8887C0.818054 10.8887 0.250063 10.3206 0.25 9.62012C0.25 8.91958 0.818015 8.35156 1.51855 8.35156Z" stroke="white" stroke-width="0.5"/>
<path d="M9.61621 9.35938C10.3167 9.35944 10.8848 9.92743 10.8848 10.6279C10.8847 11.3284 10.3167 11.8964 9.61621 11.8965C8.91571 11.8965 8.34772 11.3284 8.34766 10.6279C8.34766 9.92739 8.91567 9.35938 9.61621 9.35938Z" stroke="white" stroke-width="0.5"/>
<path d="M17.7148 0.25C18.4153 0.250063 18.9834 0.818054 18.9834 1.51855C18.9833 2.219 18.4153 2.78705 17.7148 2.78711C17.0143 2.78711 16.4464 2.21904 16.4463 1.51855C16.4463 0.818016 17.0143 0.25 17.7148 0.25Z" stroke="white" stroke-width="0.5"/>
<path d="M25.8125 4.29688C26.513 4.29694 27.0811 4.86493 27.0811 5.56543C27.081 6.26588 26.5129 6.83392 25.8125 6.83398C25.112 6.83398 24.544 6.26592 24.5439 5.56543C24.5439 4.86489 25.112 4.29688 25.8125 4.29688Z" stroke="white" stroke-width="0.5"/>
<path d="M2.02539 8.10052C2.02539 8.10052 3.86647 3.78876 5.56841 5.06365C7.27035 6.33853 8.3205 7.49968 9.61758 7.08823L15.1852 3.03906" stroke="white" stroke-width="0.5" stroke-linecap="round"/>
<path d="M18.7266 2.02344L22.7757 4.04802" stroke="white" stroke-width="0.5" stroke-linecap="round"/>
<path d="M26.8252 6.57812L29.8621 8.09656" stroke="white" stroke-width="0.5" stroke-linecap="round"/>
</svg>
