<svg width="19" height="19" viewBox="0 0 19 19" fill="none" xmlns="http://www.w3.org/2000/svg">
<path d="M17.5 13.0845C16.937 14.419 16.0565 15.5949 14.9353 16.5095C13.8142 17.4241 12.4866 18.0495 11.0687 18.331C9.6507 18.6125 8.18553 18.5415 6.80124 18.1243C5.41695 17.7071 4.1557 16.9564 3.12775 15.9377C2.0998 14.919 1.33646 13.6635 0.90445 12.2808C0.472442 10.8981 0.384927 9.43038 0.649555 8.00596C0.914184 6.58153 1.5229 5.24377 2.42248 4.10963C3.32206 2.97549 4.48512 2.0795 5.80998 1.5" stroke="#5D5D5D" stroke-linecap="round" stroke-linejoin="round"/>
<path d="M18.5 9.5C18.5 8.3181 18.2672 7.14778 17.8149 6.05585C17.3626 4.96392 16.6997 3.97177 15.864 3.13604C15.0282 2.30031 14.0361 1.63738 12.9442 1.18508C11.8522 0.732792 10.6819 0.5 9.5 0.5V9.5H18.5Z" stroke="#5D5D5D" stroke-linecap="round" stroke-linejoin="round"/>
</svg>
