<svg width="18" height="18" viewBox="0 0 18 18" fill="none" xmlns="http://www.w3.org/2000/svg">
<path d="M12 14.25C12 13.0565 11.5259 11.9119 10.682 11.068C9.83807 10.2241 8.69347 9.75 7.5 9.75C6.30653 9.75 5.16193 10.2241 4.31802 11.068C3.47411 11.9119 3 13.0565 3 14.25" stroke="#5D5D5D" stroke-linecap="round" stroke-linejoin="round"/>
<path d="M7.5 9.75C9.15685 9.75 10.5 8.40685 10.5 6.75C10.5 5.09315 9.15685 3.75 7.5 3.75C5.84315 3.75 4.5 5.09315 4.5 6.75C4.5 8.40685 5.84315 9.75 7.5 9.75Z" stroke="#5D5D5D" stroke-linecap="round" stroke-linejoin="round"/>
<path d="M15 14.25C15 13.0565 14.5259 11.9119 13.682 11.068C12.8381 10.2241 11.6935 9.75 10.5 9.75C11.2956 9.75 12.0587 9.43393 12.6213 8.87132C13.1839 8.30871 13.5 7.54565 13.5 6.75C13.5 5.95435 13.1839 5.19129 12.6213 4.62868C12.0587 4.06607 11.2956 3.75 10.5 3.75" stroke="#5D5D5D" stroke-linecap="round" stroke-linejoin="round"/>
</svg>
