<svg width="26" height="20" viewBox="0 0 26 20" fill="none" xmlns="http://www.w3.org/2000/svg">
<rect x="6" width="20" height="20" rx="2" fill="#3172EC"/>
<path d="M13.7505 12.3632L11.1379 9.75052C11.0128 9.62554 10.8433 9.55533 10.6665 9.55533C10.4897 9.55533 10.3202 9.62554 10.1952 9.75052C10.0702 9.87554 10 10.0451 10 10.2219C10 10.3986 10.0702 10.5682 10.1952 10.6932L12.8079 13.3058C12.9317 13.4297 13.0787 13.528 13.2405 13.595C13.4023 13.6621 13.5757 13.6966 13.7509 13.6966C13.926 13.6966 14.0994 13.6621 14.2612 13.595C14.423 13.528 14.57 13.4297 14.6939 13.3058L20.8619 7.13786C20.9868 7.01284 21.057 6.8433 21.057 6.66652C21.057 6.48975 20.9868 6.32021 20.8619 6.19519V6.19519C20.7368 6.07021 20.5673 6 20.3905 6C20.2137 6 20.0442 6.07021 19.9192 6.19519L13.7505 12.3632Z" fill="white"/>
</svg>
