<svg width="24" height="24" viewBox="0 0 24 24" fill="none" xmlns="http://www.w3.org/2000/svg">
<path d="M22 7.70283C22 7.10283 21.6 6.50283 21.2 6.20283L14.9 2.30283C14.6409 2.15556 14.348 2.07812 14.05 2.07812C13.752 2.07812 13.4591 2.15556 13.2 2.30283L2.9 8.30283C2.4 8.50283 2 9.10283 2 9.70283V16.3028C2 16.8028 2.4 17.5028 2.8 17.8028L9.1 21.7028C9.35908 21.8501 9.65198 21.9275 9.95 21.9275C10.248 21.9275 10.5409 21.8501 10.8 21.7028L21.1 15.7028C21.6 15.4028 22 14.7028 22 14.2028V7.70283Z" stroke="#353639" stroke-linecap="round" stroke-linejoin="round"/>
<path d="M9.99961 21.9016V14.0016L2.09961 9.10156" stroke="#353639" stroke-linecap="round" stroke-linejoin="round"/>
<path d="M10 14.0016L21.9 7.10156" stroke="#353639" stroke-linecap="round" stroke-linejoin="round"/>
<path d="M14 19.8031V11.7031" stroke="#353639" stroke-linecap="round" stroke-linejoin="round"/>
<path d="M18 17.4984V9.39844" stroke="#353639" stroke-linecap="round" stroke-linejoin="round"/>
</svg>
