<svg width="20" height="21" viewBox="0 0 20 21" fill="none" xmlns="http://www.w3.org/2000/svg">
<path d="M9.73758 0.5H9.29758C8.76715 0.5 8.25844 0.710714 7.88337 1.08579C7.50829 1.46086 7.29758 1.96957 7.29758 2.5V2.68C7.29722 3.03073 7.20464 3.37519 7.02912 3.67884C6.8536 3.98248 6.60132 4.23464 6.29758 4.41L5.86758 4.66C5.56354 4.83554 5.21865 4.92795 4.86758 4.92795C4.51651 4.92795 4.17162 4.83554 3.86758 4.66L3.71758 4.58C3.25864 4.31526 2.71342 4.24344 2.20158 4.38031C1.68975 4.51717 1.25313 4.85154 0.98758 5.31L0.76758 5.69C0.502843 6.14893 0.431024 6.69416 0.567888 7.206C0.704752 7.71783 1.03912 8.15445 1.49758 8.42L1.64758 8.52C1.94986 8.69451 2.2012 8.94509 2.37663 9.24683C2.55206 9.54857 2.64547 9.89097 2.64758 10.24V10.75C2.64898 11.1024 2.55723 11.449 2.38162 11.7545C2.20602 12.0601 1.95279 12.3138 1.64758 12.49L1.49758 12.58C1.03912 12.8456 0.704752 13.2822 0.567888 13.794C0.431024 14.3058 0.502843 14.8511 0.76758 15.31L0.98758 15.69C1.25313 16.1485 1.68975 16.4828 2.20158 16.6197C2.71342 16.7566 3.25864 16.6847 3.71758 16.42L3.86758 16.34C4.17162 16.1645 4.51651 16.0721 4.86758 16.0721C5.21865 16.0721 5.56354 16.1645 5.86758 16.34L6.29758 16.59C6.60132 16.7654 6.8536 17.0175 7.02912 17.3212C7.20464 17.6248 7.29722 17.9693 7.29758 18.32V18.5C7.29758 19.0304 7.50829 19.5391 7.88337 19.9142C8.25844 20.2893 8.76715 20.5 9.29758 20.5H9.73758C10.268 20.5 10.7767 20.2893 11.1518 19.9142C11.5269 19.5391 11.7376 19.0304 11.7376 18.5V18.32C11.7379 17.9693 11.8305 17.6248 12.006 17.3212C12.1816 17.0175 12.4338 16.7654 12.7376 16.59L13.1676 16.34C13.4716 16.1645 13.8165 16.0721 14.1676 16.0721C14.5187 16.0721 14.8635 16.1645 15.1676 16.34L15.3176 16.42C15.7765 16.6847 16.3217 16.7566 16.8336 16.6197C17.3454 16.4828 17.782 16.1485 18.0476 15.69L18.2676 15.3C18.5323 14.8411 18.6041 14.2958 18.4673 13.784C18.3304 13.2722 17.996 12.8356 17.5376 12.57L17.3876 12.49C17.0824 12.3138 16.8291 12.0601 16.6535 11.7545C16.4779 11.449 16.3862 11.1024 16.3876 10.75V10.25C16.3862 9.89758 16.4779 9.55105 16.6535 9.24549C16.8291 8.93994 17.0824 8.68621 17.3876 8.51L17.5376 8.42C17.996 8.15445 18.3304 7.71783 18.4673 7.206C18.6041 6.69416 18.5323 6.14893 18.2676 5.69L18.0476 5.31C17.782 4.85154 17.3454 4.51717 16.8336 4.38031C16.3217 4.24344 15.7765 4.31526 15.3176 4.58L15.1676 4.66C14.8635 4.83554 14.5187 4.92795 14.1676 4.92795C13.8165 4.92795 13.4716 4.83554 13.1676 4.66L12.7376 4.41C12.4338 4.23464 12.1816 3.98248 12.006 3.67884C11.8305 3.37519 11.7379 3.03073 11.7376 2.68V2.5C11.7376 1.96957 11.5269 1.46086 11.1518 1.08579C10.7767 0.710714 10.268 0.5 9.73758 0.5Z" stroke="#353639" stroke-linecap="round" stroke-linejoin="round"/>
<path d="M9.51758 13.5C11.1744 13.5 12.5176 12.1569 12.5176 10.5C12.5176 8.84315 11.1744 7.5 9.51758 7.5C7.86072 7.5 6.51758 8.84315 6.51758 10.5C6.51758 12.1569 7.86072 13.5 9.51758 13.5Z" stroke="#353639" stroke-linecap="round" stroke-linejoin="round"/>
</svg>
