<svg width="24" height="24" viewBox="0 0 24 24" fill="none" xmlns="http://www.w3.org/2000/svg">
<path d="M20 5C20 3.89543 19.1046 3 18 3C16.8954 3 16 3.89543 16 5C16 6.10457 16.8954 7 18 7C19.1046 7 20 6.10457 20 5ZM22 5C22 7.20914 20.2091 9 18 9C15.7909 9 14 7.20914 14 5C14 2.79086 15.7909 1 18 1C20.2091 1 22 2.79086 22 5Z" fill="#353639"/>
<path d="M8 12C8 10.8954 7.10457 10 6 10C4.89543 10 4 10.8954 4 12C4 13.1046 4.89543 14 6 14C7.10457 14 8 13.1046 8 12ZM10 12C10 14.2091 8.20914 16 6 16C3.79086 16 2 14.2091 2 12C2 9.79086 3.79086 8 6 8C8.20914 8 10 9.79086 10 12Z" fill="#353639"/>
<path d="M20 19C20 17.8954 19.1046 17 18 17C16.8954 17 16 17.8954 16 19C16 20.1046 16.8954 21 18 21C19.1046 21 20 20.1046 20 19ZM22 19C22 21.2091 20.2091 23 18 23C15.7909 23 14 21.2091 14 19C14 16.7909 15.7909 15 18 15C20.2091 15 22 16.7909 22 19Z" fill="#353639"/>
<path d="M7.72599 13.0043C8.00411 12.5273 8.61705 12.3659 9.09415 12.644L15.9233 16.6244C16.4004 16.9025 16.5625 17.5145 16.2846 17.9916C16.0065 18.4688 15.3936 18.63 14.9164 18.352L8.08634 14.3725C7.60933 14.0944 7.44797 13.4814 7.72599 13.0043Z" fill="#353639"/>
<path d="M14.9061 5.6443C15.3831 5.36605 15.9949 5.52672 16.2733 6.00367C16.5515 6.48056 16.3906 7.09242 15.9139 7.37086L9.09358 11.3513C8.61674 11.6295 8.00486 11.4686 7.72639 10.992C7.44803 10.515 7.60877 9.90216 8.08577 9.62379L14.9061 5.6443Z" fill="#353639"/>
</svg>
