<svg width="18" height="18" viewBox="0 0 18 18" fill="none" xmlns="http://www.w3.org/2000/svg">
<path d="M16.2954 13.4948L10.2954 2.9948C10.1645 2.76395 9.97482 2.57194 9.74557 2.43835C9.51631 2.30476 9.25571 2.23437 8.99037 2.23438C8.72503 2.23437 8.46444 2.30476 8.23518 2.43835C8.00592 2.57194 7.8162 2.76395 7.68537 2.9948L1.68537 13.4948C1.55313 13.7238 1.48379 13.9837 1.48438 14.2482C1.48496 14.5126 1.55546 14.7722 1.68871 15.0007C1.82196 15.2291 2.01323 15.4182 2.24314 15.5489C2.47305 15.6796 2.73343 15.7472 2.99787 15.7448H14.9979C15.261 15.7445 15.5195 15.675 15.7473 15.5433C15.9751 15.4115 16.1643 15.2221 16.2958 14.9941C16.4272 14.7661 16.4964 14.5076 16.4963 14.2444C16.4963 13.9812 16.427 13.7227 16.2954 13.4948Z" stroke="#5D5D5D" stroke-linecap="round" stroke-linejoin="round"/>
<path d="M9 6.75V10.5" stroke="#5D5D5D" stroke-linecap="round" stroke-linejoin="round"/>
<path d="M9 12.75H9.0075" stroke="#5D5D5D" stroke-width="1.5" stroke-linecap="round" stroke-linejoin="round"/>
</svg>
